<svg xmlns="http://www.w3.org/2000/svg" version="1.1" xmlns:xlink="http://www.w3.org/1999/xlink" xmlns:svgjs="http://svgjs.com/svgjs" width="512" height="512" x="0" y="0" viewBox="0 0 32 32" style="enable-background:new 0 0 512 512" xml:space="preserve"><g><path d="M2 3h3.208l3.535 15.026A2.992 2.992 0 0 0 9 24h17a1 1 0 0 0 0-2H9a1 1 0 0 1 0-2h16.882a2.99 2.99 0 0 0 2.92-2.313l2.119-9A3 3 0 0 0 28 5H7.733l-.759-3.229A1 1 0 0 0 6 1H2a1 1 0 0 0 0 2zm26 4a1.016 1.016 0 0 1 .974 1.229l-2.12 9a.994.994 0 0 1-.972.771h-15.09L8.2 7zM20 28a3 3 0 1 0 3-3 3 3 0 0 0-3 3zm4 0a1 1 0 1 1-1-1 1 1 0 0 1 1 1zM9 28a3 3 0 1 0 3-3 3 3 0 0 0-3 3zm4 0a1 1 0 1 1-1-1 1 1 0 0 1 1 1z" fill="#ffffff" data-original="#000000"></path></g></svg>