<svg xmlns="http://www.w3.org/2000/svg" version="1.1" xmlns:xlink="http://www.w3.org/1999/xlink" xmlns:svgjs="http://svgjs.com/svgjs" width="512" height="512" x="0" y="0" viewBox="0 0 128 128" style="enable-background:new 0 0 512 512" xml:space="preserve"><g><path d="m111.777 93.277-2.465-16.919a6.723 6.723 0 0 0-2.218-4.083l-6.335-49.285h.361a6.75 6.75 0 1 0 0-13.5H85.258a9.5 9.5 0 1 0 0 13.5h4.9l6.574 51.071a6.745 6.745 0 0 0-.777 4.24L98.4 95.169a14.529 14.529 0 0 0-3.827 4.141H37.318l-9.584-9.641a6.785 6.785 0 0 0-4.794-2h-9.49a6.743 6.743 0 0 0-4.48 11.79 14.42 14.42 0 1 0 25.515 13.349h59.266a14.422 14.422 0 1 0 18.026-19.533zM104.37 16.24a3.239 3.239 0 0 1-3.25 3.25H87.5a9.32 9.32 0 0 0 0-6.5h13.62a3.254 3.254 0 0 1 3.25 3.25zm-31.8 0a6 6 0 1 1 6 6 6.012 6.012 0 0 1-5.997-6zm24.66 6.75 6.124 47.639a6.883 6.883 0 0 0-1.69.018 6.656 6.656 0 0 0-1.772.52L93.69 22.99zm2.192 54.81a3.247 3.247 0 1 1 6.426-.939l2.274 15.6a14.1 14.1 0 0 0-6.441.917zM21.36 117.76a10.943 10.943 0 0 1-10.93-10.93 10.816 10.816 0 0 1 1.671-5.8c1.142.234 1.481.1 6.207.139a6.43 6.43 0 1 0 9.224 7.445l2.181 2.194a6.666 6.666 0 0 0 1.353 1.045 10.907 10.907 0 0 1-9.706 5.907zm0-13.861a2.933 2.933 0 1 1-2.932 2.933 2.936 2.936 0 0 1 2.929-2.932zm12.4 5.317a3.206 3.206 0 0 1-1.556-.869L22.1 98.186a1.748 1.748 0 0 0-1.241-.516H13.45a3.3 3.3 0 0 1-1.334-.286 3.25 3.25 0 0 1 1.334-6.214h9.49a3.27 3.27 0 0 1 2.309.964l10.1 10.159a1.747 1.747 0 0 0 1.241.517h56.43a13.929 13.929 0 0 0-.353 6.5c-62.019-.034-58.175.083-58.91-.094zm73.113 8.548a10.933 10.933 0 1 1 10.927-10.932 10.945 10.945 0 0 1-10.93 10.932z" fill="#ffffff" data-original="#000000"></path><path d="M106.87 100.4a6.433 6.433 0 1 0 6.432 6.433 6.44 6.44 0 0 0-6.432-6.433zm0 9.365a2.933 2.933 0 1 1 2.932-2.932 2.936 2.936 0 0 1-2.932 2.931z" fill="#ffffff" data-original="#000000"></path></g></svg>