<svg xmlns="http://www.w3.org/2000/svg" version="1.1" xmlns:xlink="http://www.w3.org/1999/xlink" xmlns:svgjs="http://svgjs.com/svgjs" width="512" height="512" x="0" y="0" viewBox="0 0 64 64" style="enable-background:new 0 0 512 512" xml:space="preserve" class=""><g><g data-name="EV Battery"><path d="M36.89 60.55 35 56.76V5a3.009 3.009 0 0 0-3-3H8a3.009 3.009 0 0 0-3 3v51.76l-1.89 3.79A1 1 0 0 0 4 62h32a1 1 0 0 0 .89-1.45ZM7 5a1 1 0 0 1 1-1h24a1 1 0 0 1 1 1v51H7ZM5.62 60l1-2h26.76l1 2Z" fill="#ff7f1e" data-original="#000000" class=""></path><path d="M30.89 41.55A.988.988 0 0 0 30 41h-2.61a7.975 7.975 0 0 0-14.85.13.888.888 0 0 0-.34.27l-3 4A1 1 0 0 0 10 47h2.61a7.974 7.974 0 0 0 14.84-.11.882.882 0 0 0 .35-.29l3-4a1 1 0 0 0 .09-1.05ZM12 45l1-1.33L14 45Zm8 5a5.934 5.934 0 0 1-5.18-3H16a1 1 0 0 0 .8-1.6l-2.47-3.29A5.969 5.969 0 0 1 25.18 41H24a1 1 0 0 0-.8 1.6l2.47 3.29A5.951 5.951 0 0 1 20 50Zm7-5.67L26 43h2ZM30 6H10a1 1 0 0 0-1 1v24a1 1 0 0 0 1 1h20a1 1 0 0 0 1-1V7a1 1 0 0 0-1-1Zm-1 24H11V8h18Z" fill="#ff7f1e" data-original="#000000" class=""></path><path d="M24.84 17.46A1 1 0 0 0 24 17h-3v-6a1 1 0 0 0-.79-.98.991.991 0 0 0-1.12.57l-4 9A1 1 0 0 0 16 21h3v6a1 1 0 0 0 .79.98A1.492 1.492 0 0 0 20 28a1 1 0 0 0 .91-.59l4-9a1 1 0 0 0-.07-.95ZM21 22.29V20a1 1 0 0 0-1-1h-2.46L19 15.71V18a1 1 0 0 0 1 1h2.46ZM59 8h-3V3a1 1 0 0 0-1-1h-8a1 1 0 0 0-1 1v5h-3a3.009 3.009 0 0 0-3 3v34a3.009 3.009 0 0 0 3 3h16a3.009 3.009 0 0 0 3-3V11a3.009 3.009 0 0 0-3-3ZM48 4h6v4h-6Zm12 41a1 1 0 0 1-1 1H43a1 1 0 0 1-1-1V11a1 1 0 0 1 1-1h16a1 1 0 0 1 1 1Z" fill="#ff7f1e" data-original="#000000" class=""></path><path d="M57 12H45a1 1 0 0 0-1 1v30a1 1 0 0 0 1 1h12a1 1 0 0 0 1-1V13a1 1 0 0 0-1-1ZM46 42v-1.59L47.59 42Zm4.41 0L46 37.59v-4.18L54.59 42ZM56 40.59l-10-10v-5.18l10 10Zm0-8-10-10v-4.18l10 10Zm0-7-10-10V14h2.59L56 21.41Zm0-7L51.41 14H56ZM37 53h2v2h-2zM50 53h-9v2h10a1 1 0 0 0 1-1v-4h-2Z" fill="#ff7f1e" data-original="#000000" class=""></path></g></g></svg>