<svg xmlns="http://www.w3.org/2000/svg" version="1.1" xmlns:xlink="http://www.w3.org/1999/xlink" xmlns:svgjs="http://svgjs.com/svgjs" width="512" height="512" x="0" y="0" viewBox="0 0 512 512" style="enable-background:new 0 0 512 512" xml:space="preserve" class=""><g><path d="M477.89 404.75c9.1-8.519 15.332-20.055 17.089-33H511.5v-7.5c0-37.629-29.226-68.54-66.166-71.28l-26.626-73.22H439.5v-63H408c-10.241 0-19.354 4.915-25.111 12.508l-10.254-20.508H336v15h27.365l13.197 26.395a31.319 31.319 0 0 0 5.966 16.606c-8.253 3.65-14.028 11.911-14.028 21.499v96.5H328c-22.332 0-40.5-18.168-40.5-40.5v-41.734c9.29-3.138 16-11.93 16-22.266 0-12.958-10.542-23.5-23.5-23.5H152c-12.958 0-23.5 10.542-23.5 23.5 0 7.233 3.287 13.711 8.443 18.025-12.775 8.658-21.753 22.499-23.922 38.475H95.5v-32.5c0-12.958-10.542-23.5-23.5-23.5H56c-4.687 0-8.5-3.814-8.5-8.5v-33.409c13.759-3.375 24-15.806 24-30.591v-16.5H80v-15H63.5v-24.5h-15v24.5h-17v-24.5h-15v24.5H0v15h8.5v16.5c0 14.785 10.241 27.216 24 30.591v33.409c0 12.958 10.542 23.5 23.5 23.5h16c4.687 0 8.5 3.814 8.5 8.5v127.5h48.521c1.757 12.945 7.989 24.481 17.089 33H0v15h256v-15h-34.11c9.1-8.519 15.332-20.055 17.089-33h146.042c1.757 12.945 7.989 24.481 17.089 33H272v15h240v-15zM23.5 148.25v-16.5h33v16.5c0 9.098-7.402 16.5-16.5 16.5s-16.5-7.402-16.5-16.5zm89 208.5h-17v-17h17zm0-32h-17v-33h17zm71.5 80c-19.768 0-36.264-14.241-39.792-33h9.202c3.374 13.759 15.806 24 30.591 24s27.216-10.241 30.591-24h9.202c-3.53 18.759-20.026 33-39.794 33zm-14.678-33h29.357c-2.737 5.334-8.282 9-14.678 9s-11.942-3.666-14.679-9zm-41.309-15c3.682-27.62 27.377-49 55.987-49s52.305 21.38 55.987 49zm240.487 0H255.105c-3.761-35.913-34.212-64-71.105-64-22.958 0-43.409 10.889-56.5 27.76v-28.76H152v-15h-23.792c3.529-18.759 20.024-33 39.792-33h64v-15h-80c-4.687 0-8.5-3.814-8.5-8.5s3.813-8.5 8.5-8.5h128c4.686 0 8.5 3.814 8.5 8.5s-3.814 8.5-8.5 8.5h-32v15h24.5v40.5c0 30.603 24.897 55.5 55.5 55.5h40.5zm39.5-185h16.5v33H408c-9.098 0-16.5-7.402-16.5-16.5s7.402-16.5 16.5-16.5zm-24.5 56.5c0-4.686 3.814-8.5 8.5-8.5h10.747l26.823 73.764c-18.661 2.739-34.999 12.712-46.07 26.972zm.496 128.5c3.679-27.622 27.392-49 56.004-49s52.325 21.378 56.004 49zm70.682 15c-2.737 5.334-8.282 9-14.678 9s-11.941-3.666-14.678-9zm-14.678 33c-19.769 0-36.264-14.241-39.793-33h9.202c3.374 13.759 15.806 24 30.591 24s27.216-10.241 30.591-24h9.202c-3.529 18.759-20.024 33-39.793 33z" fill="#ff7f1e" data-original="#000000" class=""></path><path d="M263.5 163.75h24v-47h-24v-16h-111v79h111zm0-32h9v17h-9zm-79 33h-17v-49h17zm32 0h-17v-49h17zm32 0h-17v-49h17zM168 260.75h16v15h-16zM232 260.75h16v15h-16zM200 260.75h16v15h-16z" fill="#ff7f1e" data-original="#000000" class=""></path></g></svg>