<svg xmlns="http://www.w3.org/2000/svg" version="1.1" xmlns:xlink="http://www.w3.org/1999/xlink" xmlns:svgjs="http://svgjs.com/svgjs" width="512" height="512" x="0" y="0" viewBox="0 0 512 512" style="enable-background:new 0 0 512 512" xml:space="preserve" class=""><g><path d="M440.354 78.372c-4.42-4.639-10.741-3.922-14.302-.551-3.559 3.373-4.612 9.648-.217 14.311l.074.078c2.185 2.269 4.821 3.241 7.358 3.241 2.626 0 5.145-1.042 6.945-2.767 3.541-3.392 4.563-9.672.142-14.312z" fill="#ffffff" data-original="#000000" class=""></path><path d="M473.172 120.394c-2.929-4.683-9.1-6.104-13.782-3.174s-6.103 9.1-3.173 13.781C479.626 168.415 492 211.639 492 256c0 130.131-105.869 236-236 236S20 386.131 20 256 125.869 20 256 20c46.056 0 90.676 13.267 129.035 38.366 4.624 3.023 10.82 1.729 13.844-2.893 3.023-4.622 1.729-10.819-2.893-13.844C354.362 14.396 305.956 0 256 0 187.62 0 123.333 26.629 74.98 74.98 26.629 123.333 0 187.62 0 256s26.629 132.667 74.98 181.02C123.333 485.371 187.62 512 256 512s132.667-26.629 181.02-74.98C485.371 388.667 512 324.38 512 256c0-48.117-13.427-95.009-38.828-135.606z" fill="#ffffff" data-original="#000000" class=""></path><path d="M442.704 178.922c-.029-.075-.049-.15-.08-.225-.026-.063-.06-.12-.086-.182-10.065-24.14-24.683-45.92-42.777-64.268a10.2 10.2 0 0 0-.924-1.083 10.17 10.17 0 0 0-1.081-.923c-18.353-18.099-40.138-32.719-64.284-42.785-.057-.025-.11-.056-.168-.08-.068-.028-.138-.047-.207-.073C309.327 59.451 283.29 54 256 54c-27.29 0-53.327 5.451-77.096 15.303-.069.027-.138.045-.207.074-.058.024-.111.055-.168.08-24.146 10.065-45.932 24.686-64.284 42.785a9.96 9.96 0 0 0-1.081.923 9.99 9.99 0 0 0-.924 1.083C94.142 132.6 79.521 154.385 69.457 178.53c-.025.057-.056.11-.08.168-.028.069-.047.138-.074.207C59.451 202.674 54 228.71 54 256c0 53.956 21.012 104.683 59.164 142.836a9.972 9.972 0 0 0 7.071 2.929 9.972 9.972 0 0 0 7.071-2.929c3.905-3.905 3.905-10.237 0-14.143-14.758-14.758-26.661-31.609-35.45-49.878l15.034-6.227c5.103-2.114 7.525-7.964 5.412-13.066-2.114-5.103-7.962-7.521-13.066-5.412l-15.033 6.227c-5.628-16.063-8.991-32.972-9.926-50.336H123c5.522 0 10-4.478 10-10s-4.478-10-10-10H74.278a180.818 180.818 0 0 1 10.004-50.305l14.958 6.196a9.963 9.963 0 0 0 3.823.765c3.924 0 7.647-2.325 9.242-6.176 2.114-5.103-.309-10.952-5.411-13.065l-14.947-6.192c7.496-15.548 17.146-29.867 28.548-42.585l13.843 13.843c1.953 1.952 4.512 2.929 7.071 2.929s5.118-.977 7.071-2.929c3.905-3.905 3.905-10.237 0-14.143l-13.843-13.843c12.718-11.402 27.037-21.052 42.585-28.548l6.192 14.947a10.002 10.002 0 0 0 9.242 6.176 9.963 9.963 0 0 0 3.823-.765c5.103-2.113 7.525-7.963 5.411-13.065l-6.196-14.958a180.854 180.854 0 0 1 50.305-10.004V117c0 5.522 4.478 10 10 10s10-4.478 10-10V74.278a180.818 180.818 0 0 1 50.305 10.004l-6.196 14.958c-2.114 5.103.309 10.952 5.411 13.065a9.963 9.963 0 0 0 3.823.765c3.924 0 7.647-2.325 9.242-6.176l6.192-14.947c15.548 7.496 29.867 17.146 42.585 28.548l-11.407 11.407c-3.905 3.905-3.905 10.237 0 14.143 1.953 1.952 4.512 2.929 7.071 2.929s5.118-.977 7.071-2.929l11.407-11.407c11.402 12.718 21.052 27.037 28.548 42.584l-14.943 6.19c-5.103 2.114-7.525 7.964-5.412 13.066a10.005 10.005 0 0 0 9.243 6.176 9.98 9.98 0 0 0 3.823-.764l14.955-6.194A180.803 180.803 0 0 1 437.72 246H394c-5.522 0-10 4.478-10 10s4.478 10 10 10h43.723c-.934 17.364-4.298 34.273-9.926 50.336l-15.036-6.228c-5.103-2.109-10.952.311-13.066 5.412-2.113 5.103.31 10.952 5.412 13.066l15.036 6.228c-8.788 18.267-20.689 35.117-35.446 49.875-3.906 3.907-3.906 10.239-.001 14.144 3.906 3.904 10.238 3.904 14.143 0C436.989 360.68 458 309.954 458 256c0-27.283-5.449-53.313-15.296-77.078z" fill="#ffffff" data-original="#000000" class=""></path><path d="M345.084 166.916c-3.906-3.904-10.236-3.904-14.143 0l-60.571 60.571A31.792 31.792 0 0 0 255.872 224c-17.645 0-32 14.355-32 32a31.792 31.792 0 0 0 3.487 14.498l-3.794 3.794c-3.905 3.905-3.905 10.237 0 14.143 1.953 1.952 4.512 2.929 7.071 2.929s5.118-.977 7.071-2.929l3.835-3.835a31.788 31.788 0 0 0 14.33 3.401c17.645 0 32-14.355 32-32 0-5.15-1.23-10.015-3.401-14.33l60.612-60.612c3.906-3.906 3.906-10.238.001-14.143zM255.873 268a11.95 11.95 0 0 1-8.343-3.393c-.023-.023-.042-.049-.065-.072-.044-.044-.092-.081-.137-.124a11.956 11.956 0 0 1-3.455-8.412c0-6.617 5.383-12 12-12s12 5.383 12 12-5.383 12.001-12 12.001zM220.069 396.83c-1.859-1.86-4.439-2.931-7.069-2.931s-5.21 1.07-7.07 2.931a10.056 10.056 0 0 0-2.93 7.069 10.07 10.07 0 0 0 2.93 7.07c1.861 1.86 4.44 2.93 7.07 2.93s5.21-1.069 7.069-2.93a10.075 10.075 0 0 0 2.931-7.07c0-2.64-1.07-5.21-2.931-7.069zM299 393.897h-47c-5.522 0-10 4.478-10 10s4.478 10 10 10h47c5.522 0 10-4.478 10-10s-4.478-10-10-10z" fill="#ffffff" data-original="#000000" class=""></path></g></svg>